<svg width="170" height="62" viewBox="0 0 170 62" fill="none" xmlns="http://www.w3.org/2000/svg">
<path d="M83.1807 27.0449C90.7245 27.0449 96.8632 33.2309 96.8632 40.8124C96.8632 48.3939 90.715 54.4195 83.1807 54.4195C75.6463 54.4195 69.498 48.3185 69.498 40.8124C69.498 33.3063 75.6463 27.0449 83.1807 27.0449ZM83.1807 43.6885C84.7743 43.6885 86.0567 42.4155 86.0567 40.8124C86.0567 39.2093 84.7837 37.9363 83.1807 37.9363C81.5776 37.9363 80.3046 39.2093 80.3046 40.8124C80.3046 42.4155 81.5776 43.6885 83.1807 43.6885Z" fill="#ED2A76"/>
<path d="M83.1995 20.274L80.8421 25.4981H69.8281L83.1901 0L96.5144 25.4981H85.5004L83.1901 20.274H83.1995Z" fill="#F48120"/>
<path d="M59.3989 61.8027H47.3477V35.9463H59.8232C64.4532 35.9463 67.2445 38.8601 67.2445 42.6131C67.2445 44.2068 66.7447 45.6873 65.7923 46.8C67.8574 48.1579 69.1587 50.2701 69.1587 52.9859C69.1587 58.0968 65.4811 61.8027 59.3989 61.8027ZM56.5228 46.0456H57.0603C58.3616 46.0456 59.05 45.4044 59.05 44.3294C59.05 43.1695 58.3616 42.4906 57.0603 42.4906H56.5228V46.0456ZM56.5228 54.5418H57.0603C58.3616 54.5418 59.1254 53.9006 59.1254 52.703C59.1254 51.5054 58.3616 50.7888 57.0603 50.7888H56.5228V54.5418Z" fill="white"/>
<path d="M111.94 56.8614L109.668 61.812H98.9082L105.783 48.9215L98.9082 35.9556H109.668L111.94 40.9439L114.213 35.9556H124.972L118.06 48.9215L124.972 61.812H114.213L111.94 56.8614Z" fill="white"/>
<path d="M35.0038 28.3834H33.0707V33.6452H23.0469V7.78882H34.9661C40.4354 7.78882 44.8768 12.4188 44.8768 18.1616C44.8768 23.9043 40.4731 28.374 35.0038 28.374V28.3834ZM32.3446 20.6416H32.6087C34.3155 20.6416 35.2679 19.6798 35.2679 18.171C35.2679 16.6622 34.3155 15.7004 32.6087 15.7004H32.3446V20.651V20.6416Z" fill="white"/>
<path d="M108.942 15.3799L111.79 7.79834H122.653L116.92 20.7643L123.605 33.6548H111.799L108.952 26.9125V33.6548H98.9277V7.79834H108.952V15.3799H108.942Z" fill="white"/>
<path d="M157.128 29.383L156.94 29.4584V33.6452H146.916V7.78882H158.722C164.191 7.78882 168.633 12.4566 168.633 18.1616C168.633 21.3111 167.303 24.1023 165.219 26.0166L170 33.6358H159.222L157.138 29.3641L157.128 29.383ZM156.214 20.6416H156.478C158.185 20.6416 159.137 19.6798 159.137 18.171C159.137 16.6622 158.185 15.7004 156.478 15.7004H156.214V20.651V20.6416Z" fill="white"/>
<path d="M67.2347 33.6452H47.3379V7.78882H67.2347V15.1346H57.5975V26.1297H67.2347V33.6358V33.6452Z" fill="white"/>
<path d="M67.2345 18.1709H55.5039V23.0838H67.2345V18.1709Z" fill="white"/>
<path d="M144.407 33.6452H124.973V7.78882H144.407V15.1346H134.987V26.1297H144.407V33.6358V33.6452Z" fill="white"/>
<path d="M144.408 18.1709H132.951V23.0838H144.408V18.1709Z" fill="white"/>
<path d="M91.8748 61.8028H74.4863C75.9197 58.408 79.2672 56.0317 83.1806 56.0317C87.0939 56.0317 90.4415 58.4175 91.8748 61.8028Z" fill="#ED2A76"/>
<path d="M6.28023 12.7209C5.08265 14.2108 3.30042 17.4263 4.86577 22.2072C4.90348 22.3298 5.22409 23.103 5.24295 23.1973H0V33.5229C0.160306 33.5229 0.339479 33.5229 0.537504 33.5229C3.5456 33.5229 10.0899 32.9949 13.5412 28.7043C14.7482 27.205 16.5398 23.9611 14.9556 19.1048C14.9273 19.0199 14.6822 18.4824 14.503 18.077H20.4626V7.79852C17.7751 7.73251 10.0804 7.96825 6.27082 12.7114L6.28023 12.7209Z" fill="white"/>
</svg>
